<svg data-name="Livello 1" xmlns="http://www.w3.org/2000/svg" viewBox="0 0 43 25"><path d="M17.2 20.83a4.3 4.3 0 01-8.6 0 4.23 4.23 0 014.3-4.16 4.24 4.24 0 004.3-4.17 4.3 4.3 0 018.6 0 4.24 4.24 0 01-4.3 4.17 4.23 4.23 0 00-4.3 4.16zm17.2 0a4.3 4.3 0 11-4.3-4.16 4.24 4.24 0 004.3-4.17 4.24 4.24 0 00-4.3-4.17 4.23 4.23 0 01-4.3-4.16 4.3 4.3 0 018.6 0 4.23 4.23 0 004.3 4.16A4.24 4.24 0 0143 12.5a4.24 4.24 0 01-4.3 4.17 4.23 4.23 0 00-4.3 4.16zM4.3 8.33a4.24 4.24 0 014.3 4.17 4.24 4.24 0 01-4.3 4.17A4.24 4.24 0 010 12.5a4.24 4.24 0 014.3-4.17z" fill="#002fa7" fill-rule="evenodd"/></svg>